<?xml version="1.0" encoding="UTF-8" standalone="no"?>
<svg
   xmlns:dc="http://purl.org/dc/elements/1.1/"
   xmlns:cc="http://creativecommons.org/ns#"
   xmlns:rdf="http://www.w3.org/1999/02/22-rdf-syntax-ns#"
   xmlns:svg="http://www.w3.org/2000/svg"
   xmlns="http://www.w3.org/2000/svg"
   xmlns:sodipodi="http://sodipodi.sourceforge.net/DTD/sodipodi-0.dtd"
   xmlns:inkscape="http://www.inkscape.org/namespaces/inkscape"
   width="208.00499mm"
   height="225.12892mm"
   viewBox="0 0 208.00499 225.12892"
   version="1.1"
   id="svg8"
   inkscape:version="1.0 (4035a4fb49, 2020-05-01)"
   sodipodi:docname="Interaktivni_mapa_BiH.svg">
  <defs
     id="defs2" />
  <sodipodi:namedview
     id="base"
     pagecolor="#ffffff"
     bordercolor="#666666"
     borderopacity="1.0"
     inkscape:pageopacity="0.0"
     inkscape:pageshadow="2"
     inkscape:zoom="0.9899495"
     inkscape:cx="423.8965"
     inkscape:cy="494.53494"
     inkscape:document-units="mm"
     inkscape:current-layer="layer1"
     inkscape:document-rotation="0"
     showgrid="false"
     inkscape:window-width="1842"
     inkscape:window-height="1057"
     inkscape:window-x="-8"
     inkscape:window-y="-8"
     inkscape:window-maximized="1" />
  <metadata
     id="metadata5">
    <rdf:RDF>
      <cc:Work
         rdf:about="">
        <dc:format>image/svg+xml</dc:format>
        <dc:type
           rdf:resource="http://purl.org/dc/dcmitype/StillImage" />
        <dc:title />
      </cc:Work>
    </rdf:RDF>
  </metadata>
  <g
     transform="translate(-1.3402009,-50.031497)"
     inkscape:label="Vrstva 1"
     inkscape:groupmode="layer"
     id="layer1">
    <g
       style="fill:#7c7c7c;stroke:#ffffff;stroke-width:2;stroke-linecap:round;stroke-linejoin:round"
       id="g60"
       transform="matrix(0.20800499,0,0,0.23209169,1.3402006,50.031489)">
      <path
         name="West Bosnia"
         id="Zapadni_Bosna"
         d="m 393,438.6 1.6,4.8 4.4,8 4.7,5.2 1.7,3.8 0.3,4.7 3.1,5.6 0.7,1.4 2.3,2.8 1.4,7.6 2.7,2.8 4.4,5.2 4.4,4.2 6.4,0.4 7.1,0.5 7.1,11.3 1.4,5.5 h 0.1 l 0.2,1.1 1.4,5.1 -7.5,-2.8 -4.7,-2.8 -6.4,0.5 -2.4,5.6 -0.7,9.4 v 11.7 l 2.7,5.2 v 7.9 h 6.5 l 7.1,1.9 4,7 7.8,9.8 3.4,6.1 3,2.9 3.8,3.7 v 2 3.6 l -1,7.5 -3.8,4.7 -3.4,6.5 -5.7,1.9 -8.8,1.9 h -7.1 l -5.8,0.9 -8.4,4.7 -6.1,3.7 -9.2,4.2 H 399 l -3.1,-3.2 -1.7,-4.3 -6.1,-1.8 -4,3.2 -11.5,3.3 h -13.2 l -2.6,1 -11.5,5.5 -8.2,-7.3 -12.4,-14.5 -40.4,-41.6 -28.5,-22.7 -3.6,-5.9 -2.2,-7.5 -0.9,-6 -2,-5.1 -10.5,-9.9 -8.3,-11.6 -12.6,-12.9 -10,-14.9 -4,-4.7 -4.5,-3.5 -11.2,-4.1 -2.1,-4.2 -1.1,-5.2 -3.3,-5.5 -2.6,-1 -6.7,0.5 -2.7,-0.3 -2.5,-1.4 -2.9,-2.3 -4.9,-4.9 -3.8,-6.3 -5.6,-13.9 -3.7,-6.5 -11.1,-12 -4.2,-6.2 -4.8,-15.3 -2.4,-11.2 -0.3,-5.4 0.8,-3.9 2.6,-5.8 0.9,-3 0.6,-6 v -0.2 l 1.5,-0.8 2.8,-1.3 6.5,1 3,-1.5 1.7,-3.3 3.7,-5.2 6.1,-0.5 9.2,0.5 5.7,-1.9 8.8,-0.9 8.5,-3.3 12.5,-2.9 4.1,-5.2 5.7,-10.9 2,-1.3 7.9,6.7 7.3,7.2 11,9.2 15.7,10.7 6.9,5.7 h 6.3 l 4,1 2.9,4.6 3.3,6.6 4.8,8.7 9.1,3.1 4.8,0.5 5.8,5.6 10.3,7.7 13.1,7.1 12.1,7.2 7.7,3.1 4,7.6 5.9,4.1 5.8,1.5 1.5,9.2 0.3,11.2 3.7,4.6 7,1.5 23.7,4.1 z"
         inkscape:label="Zapadni_Bosna">
        <title
           id="title138">kraj_Zapadni_Bosna</title>
      </path>
      <path
         name="Una-Sana"
         id="Una-Sana"
         d="m 162.1,96.9 2.3,3.8 -0.1,2.9 -1.5,3.6 -5.8,2.6 -12.1,4.1 -4,6.8 v 6.2 l 2.5,5.7 7.3,8.7 8.1,2.6 16.8,1.6 17.9,1 8.1,1 15,1.1 13.9,2 9.5,2.1 13.6,3.6 10.6,6.7 11.3,11.4 9.9,13.9 2.5,9.3 v 20.5 l 1.5,4.2 6.6,-0.5 2.2,4.1 1.1,14.9 v 18 l -0.4,20.5 -2.6,6.2 -4.7,13.3 -11,0.5 -14.3,1 -14.6,-5.6 -17.9,-6.7 -15.4,-4.6 h -9.9 l -5.1,0.5 -1.1,7.2 2.2,6.2 3.5,3 -2,1.3 -5.7,10.9 -4.1,5.2 -12.5,2.9 -8.5,3.3 -8.8,0.9 -5.7,1.9 -9.2,-0.5 -6.1,0.5 -3.7,5.2 -1.7,3.3 -3,1.5 -6.5,-1 -2.8,1.3 -1.5,0.8 -0.7,-3.3 -2.8,-2.8 -5.3,-3.4 -4.6,-1.2 -2.9,-0.1 -0.9,1.1 0.1,-2.8 1.7,-1.5 2.2,-1.4 1.5,-2.6 -0.1,-5.5 -1.7,-6.8 -6.3,-17.6 -1.3,-7.1 -1.7,-6.3 -3,-3.9 -5.4,-0.9 -9.3,4.2 -5.3,-0.7 -5.2,-5.7 2,-5.7 4.2,-5.5 1.1,-4.7 2.1,-1.1 0.4,-0.3 -0.9,-4.9 -1.3,-4.4 -2,-3.4 -3.1,-1.5 -6.2,-0.9 -3.2,-1.1 -2.6,-1.7 -3.4,-5.1 -2,-8.9 -2.7,-3.9 -1.9,-0.2 -2.2,1.2 -2.1,0.6 -2,-2 -0.9,-3.2 -0.6,-3.7 -1,-3.4 -1.7,-2 -3.2,-0.2 -1.8,2.2 -1.4,3.1 -1.9,2.3 -2.2,0.8 -4.6,0.3 -2.4,0.8 -3.8,0.6 -2.2,-2.4 -1.7,-3.6 -1.9,-3.3 -6.1,-4.2 -1.4,-1.8 -6.4,-10.8 -2.9,-6.2 -0.3,-6.1 3.7,-4.9 5.3,-1.7 4.5,-2.1 1.2,-6.3 -2.4,-6.9 -4.1,-6.5 -3.5,-7.3 -0.9,-9 2,-6.4 6.4,-11.1 0.9,-6.4 -3,-11 0.1,-6.7 6,-15.6 1.1,-5.7 -0.9,-21.5 0.2,-2.8 2.9,-7.9 8.3,-7.7 13.8,-2.3 24.5,0.7 5.9,-1.1 2.8,0.1 3,1.5 2.3,3.3 -0.2,3.2 -0.9,2.6 -0.2,1.7 2.3,1.7 5.6,1.2 3.2,2.4 3.9,6.6 5.4,14.1 4.5,6 23.4,23.4 7.2,4.5 9.7,4.3 9.5,2.1 6.2,-1.7 z"
         inkscape:label="Una-Sana">
        <title
           id="title120">kraj_Una-Sana</title>
      </path>
      <path
         name="Central Bosnia"
         id="Stredni_Bosna"
         d="m 516.7,328.9 2.3,5.3 2.8,8.2 4.9,5.2 5.3,6.5 0.9,6.5 -1.2,15.1 0.6,18.6 3.1,8.6 8.6,8.2 6.5,6.4 7.4,-1.2 4.4,0.8 v 5.2 l 2.1,8.2 1.6,5.6 4.9,3 h 7.1 l 3.1,3.4 1.3,7.8 1.8,10.7 h 4.1 l 7.4,-0.4 2.2,2.1 0.6,5.2 -0.6,3.5 2.7,3.8 v 3.5 h 5.3 l 2.2,2.5 6.1,10.4 2.2,5.1 h 3.1 l 3,-0.7 2.3,2.4 2.1,11.2 0.3,6 -1.2,3.4 -3.4,3.4 -5.6,2.2 -8,6 -8.1,3 -9.9,0.8 -3,3.9 -1.3,4.3 0.1,0.1 -7.2,1.6 -9,-2.1 -7.1,-7.8 -1.2,-3.2 -2.8,-7 -2.5,-3.5 -7.7,-0.8 h -12.4 l -8,2.1 -6.5,5.6 -9.9,1.2 -8.7,-2.9 -10.2,-6.1 -11.7,-2.9 -6.5,1.2 -5.3,1.7 -6.5,0.9 -7.1,-4.3 -5.2,-3 -4.5,-1.1 v 0.1 h -0.1 l -1.4,-5.5 -7.1,-11.3 -7.1,-0.5 -6.4,-0.4 -4.4,-4.2 -4.4,-5.2 -2.7,-2.8 -1.4,-7.6 -2.3,-2.8 -0.7,-1.4 -3.1,-5.6 -0.3,-4.7 -1.7,-3.8 -4.7,-5.2 -4.4,-8 -1.6,-4.8 2.5,-8.5 2.2,-8.1 1.5,-10.2 -2.6,-13.8 -13.5,-17.3 -6.3,-9.7 -4.4,-11.8 -4,-12.3 -1.1,-15.8 -1.1,-21.5 1.8,-10.3 6.3,-1.5 13.1,0.5 3.3,3.1 7,2.5 14.6,0.8 h 12.1 l 9.1,0.5 8.1,5.6 6.6,11.3 5.1,4.6 4.4,5.6 9.1,0.6 h 16.1 l 22.3,-4.1 11,0.5 z"
         inkscape:label="Stredni_Bosna">
        <title
           id="title136">kraj_Stredni_Bosna</title>
      </path>
      <path
         name="West Herzegovina"
         id="Zapadni_Hercegovina"
         d="m 482.2,789.9 -2.7,-3.2 -37.1,-24.7 -4,-4.6 -2.9,-6.8 -2.2,-7.2 -1.6,-3.7 -2.7,-2.5 -5.2,-3.3 -10.4,-9.7 -9.9,-15.2 -5.8,-17.5 4.9,-29.6 -4.1,-9.1 -7.9,-5.4 -24.8,-3.8 -14.9,-8.4 -5.6,-5.2 11.5,-5.5 2.6,-1 h 13.2 l 11.5,-3.3 4,-3.2 6.1,1.8 1.7,4.3 3.1,3.2 h 6.7 l 9.2,-4.2 6.1,-3.7 8.4,-4.7 5.8,-0.9 h 7.1 l 8.8,-1.9 5.7,-1.9 3.4,-6.5 3.8,-4.7 1,-7.5 v -3.6 l 4.4,-1.1 6,0.5 1.8,2.9 2,3.2 v 9.8 l 2.4,3.3 1.6,2.8 v 12.6 l -1.6,1.9 h -12.2 l -2.4,1.4 -0.3,4.7 v 2.3 l 3.7,1.9 5.4,-0.5 3.8,6 4.6,8.4 5.8,3.8 1.4,4.6 2.7,6.1 h 0.7 l 4,2.8 10.9,1.8 1,6.1 1,6.5 0.3,8 3.1,7.4 3,6.1 0.4,1.1 2.7,7.7 v 7 h -0.8 l -14.5,-0.9 -12.5,-1.9 -5.8,-2.3 -6.1,-0.5 -2.7,2.8 -0.6,6.1 3.4,10.2 6.4,1.4 7.8,8.8 3.4,10.2 -2.7,13.9 -6.2,14.9 z"
         inkscape:label="Zapadni_Hercegovina">
        <title
           id="title140">kraj_Zapadni_Hercegovina</title>
      </path>
      <path
         name="Herzegovina-Neretva"
         id="Hercegovina-Neretva"
         d="m 586.8,542.7 2.1,3.3 2.5,10.1 0.4,1.8 2,9.1 1.9,4.7 4.3,4.2 9.6,2.2 7.7,-1.7 5.9,0.9 8.3,8 0.1,0.1 3.7,9.8 0.3,7.7 2.8,2.1 7.1,2.6 5.6,4.1 0.9,0.6 3.4,0.9 3.7,0.4 1.2,-4.7 2.2,-5.1 4.9,1.7 5.9,2.5 h 7.1 l 2.5,0.6 -2.1,2.1 -1,9.1 1.4,13.6 2.2,11.6 2.6,11.6 -1.1,5 h -8.8 l -25.3,-2.4 -22.3,1 h -18.3 l -17.5,-1 -1.9,7.5 6.3,10.1 1.1,11.6 0.7,22.6 0.7,31.6 -2.9,4 -4,5.1 -5.9,3 -4,6 -0.7,5.5 0.7,4 5.8,0.6 1.4,0.5 5.2,2 4.1,4 -0.8,13.3 -2.5,10 -4.4,5 -2.6,5.5 -0.4,16 0.2,0.7 2.4,14.8 4,13 4.5,8 0.4,0.6 7.6,5.3 16.1,14.5 5.8,5.8 7.3,7.2 2.2,4.7 1.1,2.2 13.6,14.5 12.4,11.9 7.3,7.5 7,2 0.3,7.6 -1.2,16.3 -5.2,-7.6 -2.8,-2.1 -6.9,0.4 -13.9,-4.7 -8.5,-4.6 -44.6,-30.2 -13.9,-8.9 -6,-5.1 -11,-12.5 -6.2,-4.8 -9,-2.5 -2.8,-1.8 -8,-12.6 -0.5,-4 0.3,-8.4 -0.7,-3.4 -3,-4 -2.3,0.1 -2.1,1.7 -2,1.2 -5.4,-1 -10.7,-4.2 -5.7,-1.2 -5.6,1.4 -3.5,3.6 -3.2,5 -0.1,-0.1 -24.7,-15.2 4.5,0.2 6.9,3.1 4.3,1.2 -3.8,-3.7 -5.7,-3.4 13.8,-2.9 7.2,-5.3 -0.9,-9.7 -0.1,-0.1 -7.8,-18.5 -7.8,-9.2 8.1,-11.4 6.2,-14.9 2.7,-13.9 -3.4,-10.2 -7.8,-8.8 -6.4,-1.4 -3.4,-10.2 0.6,-6.1 2.7,-2.8 6.1,0.5 5.8,2.3 12.5,1.9 14.5,0.9 h 0.8 v -7 l -2.7,-7.7 -0.4,-1.1 -3,-6.1 -3.1,-7.4 -0.3,-8 -1,-6.5 -1,-6.1 -10.9,-1.8 -4,-2.8 h -0.7 l -2.7,-6.1 -1.4,-4.6 -5.8,-3.8 -4.6,-8.4 -3.8,-6 -5.4,0.5 -3.7,-1.9 v -2.3 l 0.3,-4.7 2.4,-1.4 h 12.2 l 1.6,-1.9 v -12.6 l -1.6,-2.8 -2.4,-3.3 v -9.8 l -2,-3.2 -1.8,-2.9 -6,-0.5 -4.4,1.1 v -2 l -3.8,-3.7 -3,-2.9 -3.4,-6.1 -7.8,-9.8 -4,-7 -7.1,-1.9 h -6.5 v -7.9 l -2.7,-5.2 v -11.7 l 0.7,-9.4 2.4,-5.6 6.4,-0.5 4.7,2.8 7.5,2.8 -1.4,-5.1 -0.2,-1.1 v -0.1 l 4.5,1.1 5.2,3 7.1,4.3 6.5,-0.9 5.3,-1.7 6.5,-1.2 11.7,2.9 10.2,6.1 8.7,2.9 9.9,-1.2 6.5,-5.6 8,-2.1 h 12.4 l 7.7,0.8 2.5,3.5 2.8,7 1.2,3.2 7.1,7.8 9,2.1 z"
         inkscape:label="Zapadni_Hercegovina">
        <title
           id="title142">kraj_Zapadni_Hercegovina</title>
      </path>
      <path
         name="Tuzla"
         id="Tuzla"
         d="m 776.3,160.2 3.7,14.9 1.4,14.5 1.9,6.2 7.3,0.5 0.3,6.2 -1.8,8.2 -6.9,4.6 -7.4,4.7 -2.9,4.1 -0.3,8.2 2.5,7.2 9.9,9.8 13.9,16.4 4,3.6 h 5.1 l 5.9,-3.1 7.3,-12.8 4.8,-11.3 3.3,-5.7 9.1,-2 9.1,2 1.9,5.7 0.3,17.9 v 3.1 l -0.7,24.7 -2.2,5.1 -6.6,5.6 -4.4,1.8 -7.3,6.2 -6.6,4.1 -10.2,0.5 -11.3,3.1 -3.3,8.7 -4.8,6.6 -7.7,4.6 -5.8,1.1 -2.2,6.1 1.8,14.8 4,9.2 3.7,9.8 2.6,11.2 -1.5,12.2 -5.5,10.7 -0.5,0.6 -6.1,-8.6 h -14.2 l -17.6,0.8 -5.3,-2.1 -2.4,-7.4 h -7.2 l -5.5,-1.3 -1.3,-1.7 v -10.3 l -3.7,-12.6 -2.1,-12.5 -5,-4.3 -8.7,-4.4 -6.1,-1.3 -6.5,-7.3 -3.1,-7.4 v -6.5 l -1.9,-6.9 -3.7,-2.6 -12.7,0.4 -4,-3 -2.5,-7.4 v -14.7 l -0.3,-8.7 -2.1,-6 v -5.2 l 0.3,-7 v -4.6 l 11.7,0.5 13.2,-3 1.5,-8.3 -1.5,-9.2 -7,-8.2 -11.3,-3.6 -10.6,-3.6 -12.8,-4.7 -10.6,-4.6 -11.4,-4.6 -10.6,-5.7 -4,-4.6 v -10.4 l 1.8,-6.1 10.3,-1.6 11,-1 h 20.1 l 10.2,-2.6 6.2,-9.8 5.5,-16 3.7,-9.3 6.6,-4.6 6.2,-2.6 16.1,0.8 8.8,2.5 v 12.4 l 2.9,3.6 6.9,0.6 6.3,-1.6 9.1,-4.1 14.3,1 15.3,4.1 z"
         inkscape:label="Tuzla">
        <title
           id="title132">kraj_Tuzla</title>
      </path>
      <path
         name="Zenica-Doboj"
         id="Zenica-Doboj"
         d="m 658.5,257.2 v 4.6 l -0.3,7 v 5.2 l 2.1,6 0.3,8.7 v 14.7 l 2.5,7.4 4,3 12.7,-0.4 3.7,2.6 1.9,6.9 v 6.5 l 3.1,7.4 6.5,7.3 6.1,1.3 8.7,4.4 5,4.3 2.1,12.5 3.7,12.6 v 10.3 l 1.3,1.7 5.5,1.3 h 7.2 l 2.4,7.4 5.3,2.1 17.6,-0.8 h 14.2 l 6.1,8.6 -3.5,3.5 -3.3,6.6 -8.4,7.7 -11.4,11.7 -9.1,5.6 -9.4,0.4 -1.5,-2.8 -6.2,-1.3 -4.3,-3 -2.5,-4.7 -4,-6 -4,-3.5 -5.3,-0.9 h -9.5 l -1,1.3 -2.8,3.5 -3.4,6.4 -4.3,3.5 h -11.4 l -3.1,2.6 -0.3,5.1 0.3,11.7 -3.1,3.8 -7.1,3.9 -10.2,0.4 -8.7,-0.4 -7.7,2.6 -1.9,6.9 v 9.4 l -2.2,3.5 -3.7,1.7 h -2.7 l -3.1,3 0.6,3.4 0.5,0.6 -3,0.7 h -3.1 l -2.2,-5.1 -6.1,-10.4 -2.2,-2.5 h -5.3 v -3.5 l -2.7,-3.8 0.6,-3.5 -0.6,-5.2 -2.2,-2.1 -7.4,0.4 h -4.1 l -1.8,-10.7 -1.3,-7.8 -3.1,-3.4 h -7.1 l -4.9,-3 -1.6,-5.6 -2.1,-8.2 v -5.2 l -4.4,-0.8 -7.4,1.2 -6.5,-6.4 -8.6,-8.2 -3.1,-8.6 -0.6,-18.6 1.2,-15.1 -0.9,-6.5 -5.3,-6.5 -4.9,-5.2 -2.8,-8.2 -2.3,-5.3 8.3,-6.3 12.8,-7.2 10.6,-6.1 9.2,-7.2 6.2,-7.1 1.1,-8.8 v -8.7 l -1.5,-9.7 -6.2,-6.2 -8.8,-8.7 -5.5,-10.3 v -8.2 l 4.4,-10.3 9.2,-18.8 8.7,-2.6 13.2,1 10.6,1.6 8.8,8.2 8.4,14.4 8.8,19.1 5.1,8.7 7,1 11.7,0.5 z"
         inkscape:label="Zenica-Doboj">
        <title
           id="title134">kraj_Zenica-Doboj</title>
      </path>
      <path
         name="Sarajevo"
         id="Sarajevo"
         d="m 735.1,445.3 -2.7,0.1 -1.8,7.4 -7.7,6.6 -7.7,6.1 -2.5,5.1 -0.4,8.6 1.5,12.7 0.7,10.7 v 11.2 l -2.2,4.5 -4,3.6 -7.7,1 -7,-1.5 -10.6,-1 -3.3,2 0.8,7.1 0.7,8.1 6.9,12.2 3.3,6 7,0.6 11,0.5 8,4 10.6,4.6 12.7,9.5 -3.8,4.2 -2.1,5.1 -0.8,4.3 0.1,3 -8.6,-3.9 -8.5,-4 -6.2,-6.1 -7.3,-5 h -12.8 l -2.9,8.6 -1.1,14.6 -1.8,10.9 -2,1.9 -2.5,-0.6 h -7.1 l -5.9,-2.5 -4.9,-1.7 -2.2,5.1 -1.2,4.7 -3.7,-0.4 -3.4,-0.9 -0.9,-0.6 -5.6,-4.1 -7.1,-2.6 -2.8,-2.1 -0.3,-7.7 -3.7,-9.8 -0.1,-0.1 -8.3,-8 -5.9,-0.9 -7.7,1.7 -9.6,-2.2 -4.3,-4.2 -1.9,-4.7 -2,-9.1 -0.4,-1.8 -2.5,-10.1 -2.1,-3.3 -0.1,-0.1 1.3,-4.3 3,-3.9 9.9,-0.8 8.1,-3 8,-6 5.6,-2.2 3.4,-3.4 1.2,-3.4 -0.3,-6 -2.1,-11.2 -2.3,-2.4 -0.5,-0.6 -0.6,-3.4 3.1,-3 h 2.7 l 3.7,-1.7 2.2,-3.5 v -9.4 l 1.9,-6.9 7.7,-2.6 8.7,0.4 10.2,-0.4 7.1,-3.9 3.1,-3.8 -0.3,-11.7 0.3,-5.1 3.1,-2.6 h 11.4 l 4.3,-3.5 3.4,-6.4 2.8,-3.5 1,-1.3 h 9.5 l 5.3,0.9 4,3.5 4,6 2.5,4.7 4.3,3 6.2,1.3 z"
         inkscape:label="Sarajevo">
        <title
           id="title144">kraj_Sarajevo</title>
      </path>
      <path
         name="Bosnian Podrinje"
         id="Bosenske_podrinje"
         d="m 827.9,554.3 5.8,6.1 h 5.9 l 8.4,2.5 4.4,5.6 2.9,10.1 -1.4,5.1 -8.1,1.5 -6.2,6.6 -8.4,6.6 -11.4,5 -8.4,4 -10.2,1.6 -13.5,2 -8.1,2 -17.2,-2.5 -11.3,-5.6 -16.5,-13.1 -0.5,-0.2 -0.1,-3 0.8,-4.3 2.1,-5.1 3.8,-4.2 0.9,0.6 6.2,1 9.5,0.5 4.7,-4.5 4.4,-8.6 2.6,-11.7 5.1,-6.6 11.4,-1.5 24.1,0.5 12.1,2 z"
         inkscape:label="Bosenske_podrinje">
        <title
           id="title150">kraj_Bosenske_podrinje</title>
      </path>
      <path
         name="Posavina"
         id="Posavina"
         d="m 800.4,148.9 -0.5,1.2 -1.3,4.7 -7.5,6.6 h -6.3 v -3.9 l 0.8,-7.2 -1.1,-5 -2.8,-2.2 -6.7,-0.5 -5.1,-1.1 -0.8,-7.8 -6.6,-6.7 -11,-6.1 h -11 l -10.3,-3.9 -10.2,-7.7 -7.8,-9.5 -3.6,-3.9 -0.7,-11.7 0.3,-4.2 2.3,1.5 6.7,2.5 6.2,0.2 -0.5,-5.1 -1.2,-4.4 0.1,-3.3 3.8,-1.5 2,0.1 4.2,1 2,0.1 1.7,-0.7 3.6,-2.2 1.7,-0.3 1.9,0.9 1.2,1.7 1.7,4.7 1.5,2.9 1.7,2.4 2.1,1 2.4,-1.3 0.8,-1.8 0.5,-2.2 0.8,-2.1 1.3,-1.4 1.7,-0.2 1.6,1 1.2,1.6 9.6,19.6 3,3.7 3,1.3 7.2,0.7 1.7,0.7 1.1,1 0.7,1.5 0.7,2.2 0.2,0.8 v 1.9 l 0.1,1.1 0.6,1 1.3,1.8 0.4,1.2 -0.8,3.6 -5.5,4.2 -1.9,3.6 2.8,10.3 8.8,9.5 z m -99.8,-75.5 -2.2,4.7 -1.5,8.4 -6.3,3.3 -8.7,3.3 -7,2.8 -2,5 -2,4.5 -1.1,3.3 H 656 l -5.5,-1.1 -6.3,-11.1 -5.5,-6.1 -4.7,-3.9 -4.7,-0.6 -3.2,-5 -3.9,-10 -0.4,-2.1 2.5,0.1 5.5,-1.2 4.5,-2.8 1.7,-3.8 0.2,-4.6 0.6,-4.5 2.8,-3.5 6.3,-1.4 6.1,2.5 11.6,8.4 3.9,1.7 18,1.5 4.9,2.3 4.4,3.7 z"
         inkscape:label="Posavina">
        <title
           id="title126">kraj_Posavina</title>
      </path>
      <path
         name="Doboj"
         id="Doboj"
         d="m 621.8,68.8 0.4,2.1 3.9,10 3.2,5 4.7,0.6 4.7,3.9 5.5,6.1 6.3,11.1 5.5,1.1 h 13.8 l 1.1,-3.3 2,-4.5 2,-5 7,-2.8 8.7,-3.3 6.3,-3.3 1.5,-8.4 2.2,-4.7 3.6,4 4,2.6 -0.3,4.2 0.7,11.7 3.6,3.9 7.8,9.5 10.2,7.7 10.3,3.9 h 11 l 11,6.1 6.6,6.7 0.8,7.8 5.1,1.1 6.7,0.5 -5.4,17.1 -9.9,-7.3 -15.3,-4.1 -14.3,-1 -9.1,4.1 -6.3,1.6 -6.9,-0.6 -2.9,-3.6 v -12.4 l -8.8,-2.5 -16.1,-0.8 -6.2,2.6 -6.6,4.6 -3.7,9.3 -5.5,16 -6.2,9.8 -10.2,2.6 h -20.1 l -11,1 -10.3,1.6 -1.8,6.1 v 10.4 l 4,4.6 10.6,5.7 11.4,4.6 10.6,4.6 12.8,4.7 10.6,3.6 11.3,3.6 7,8.2 1.5,9.2 -1.5,8.3 -13.2,3 -11.7,-0.5 h -19.7 l -11.7,-0.5 -7,-1 -5.1,-8.7 -8.8,-19.1 -8.4,-14.4 -8.8,-8.2 -10.6,-1.6 -13.2,-1 -8.7,2.6 -18.3,5 -9.5,-4.9 -6.1,-12.2 -8.3,-22.6 -0.3,-21.3 2.8,-12.3 7.6,-7.3 0.1,-18 -5.3,-16.2 -0.7,-17.5 6.6,-14 8.1,10.5 4.7,4.3 5.1,2.1 2.6,-0.3 7.5,-3.2 7,-1.4 2.2,-1.2 4.2,-3.9 15.6,-18.8 3.8,-2 4,-0.1 4.1,2.3 14.1,12.8 5.7,2.6 4.9,1 z"
         inkscape:label="Doboj">
        <title
           id="title124">kraj_Doboj</title>
      </path>
      <path
         name="Banja Luka"
         id="Banja_Luka"
         d="m 525.1,64 -6.6,14 0.7,17.5 5.3,16.2 -0.1,18 -7.6,7.3 -2.8,12.3 0.3,21.3 8.3,22.6 6.1,12.2 9.5,4.9 18.3,-5 -9.2,18.8 -4.4,10.3 v 8.2 l 5.5,10.3 8.8,8.7 6.2,6.2 1.5,9.7 v 8.7 l -1.1,8.8 -6.2,7.1 -9.2,7.2 -10.6,6.1 -12.8,7.2 -8.3,6.3 -0.5,0.4 -11,-0.5 -22.3,4.1 h -16.1 l -9.1,-0.6 -4.4,-5.6 -5.1,-4.6 -6.6,-11.3 -8.1,-5.6 -9.1,-0.5 h -12.1 l -14.6,-0.8 -7,-2.5 -3.3,-3.1 -13.1,-0.5 -6.3,1.5 -1.8,10.3 1.1,21.5 1.1,15.8 4,12.3 4.4,11.8 6.3,9.7 13.5,17.3 2.6,13.8 -1.5,10.2 -2.2,8.1 -2.5,8.5 -0.1,0.2 -23.7,-4.1 -7,-1.5 -3.7,-4.6 -0.3,-11.2 -1.5,-9.2 -5.8,-1.5 -5.9,-4.1 -4,-7.6 -7.7,-3.1 -12.1,-7.2 -13.1,-7.1 -10.3,-7.7 -5.8,-5.6 -4.8,-0.5 -9.1,-3.1 -4.8,-8.7 -3.3,-6.6 -2.9,-4.6 -4,-1 h -6.3 l -6.9,-5.7 -15.7,-10.7 -11,-9.2 -7.3,-7.2 -7.9,-6.7 -3.5,-3 -2.2,-6.2 1.1,-7.2 5.1,-0.5 h 9.9 l 15.4,4.6 17.9,6.7 14.6,5.6 14.3,-1 11,-0.5 4.7,-13.3 2.6,-6.2 0.4,-20.5 v -18 l -1.1,-14.9 -2.2,-4.1 -6.6,0.5 -1.5,-4.2 v -20.5 l -2.5,-9.3 -9.9,-13.9 -11.3,-11.4 -10.6,-6.7 -13.6,-3.6 -9.5,-2.1 -13.9,-2 -15,-1.1 -8.1,-1 -17.9,-1 -16.8,-1.6 -8.1,-2.6 -7.3,-8.7 -2.5,-5.7 v -6.2 l 4,-6.8 12.1,-4.1 5.8,-2.6 1.5,-3.6 0.1,-2.9 -2.3,-3.8 2.8,-10.3 5.2,-9.8 1.2,-2.9 0.5,-4.3 -0.5,-2.3 -0.1,-2.1 1.9,-3.3 2.4,-1.7 6.7,-2.1 2.8,-2 3.5,-5.6 8.3,-18.6 12.1,-8.3 14.8,0.5 51,15.3 6.5,-0.9 3.2,-2.8 0.4,-2.7 -0.2,-3.1 1.4,-4.4 2.6,-2.5 2.9,-1.3 2.5,-1.7 1.4,-4.1 2.1,-1.2 2.6,-3.1 2.1,-3 0.8,-1.6 7,-6 2.1,2.1 2.1,7.6 0.3,2.9 -0.1,3.1 1.4,2 5.3,-0.5 -0.7,-2.6 -1,-2.4 3.8,1.4 3.1,3.8 2.7,1.9 2.4,-4.6 1,2.8 0.4,2.1 -0.3,2.2 -1.1,3 1.6,-1.3 4,-2.6 1.6,-1.3 5,10.9 10.9,8.3 22.7,10.6 2.7,-1.6 12.2,-0.9 1.1,-1.6 4.9,-10.8 9.9,6.6 4.8,2 8.4,5.5 2.4,2 3.5,2 4.7,-0.5 8.5,-2.7 0.6,-1.3 0.6,-2.2 1.2,-1.4 2,1.3 1.5,2.4 0.3,2 -0.8,2.1 -1.9,2.2 3.2,1.1 3.1,-0.5 6.1,-3.2 -2.3,7.5 -1.4,2.3 1.9,-0.6 12.9,-1.7 5.6,0.6 2.8,-0.4 5.3,-3.4 9.4,-10 5.5,-2.9 8.5,0.5 7.6,4.3 6.9,6.8 z"
         inkscape:label="Banja_Luka">
        <title
           id="title122">kraj_Banja_Luka</title>
      </path>
      <path
         name="Brčko Distrikt"
         id="Brcko_distrikt"
         d="m 800.4,148.9 4.2,2.8 7.9,2.6 21.8,-0.5 0.2,6.9 -3.9,2.8 -5.8,2.7 -3.9,6.2 -3.3,9.8 -5.9,4.4 -12.8,1.1 -3.9,2.8 -4.4,5.8 -7.3,-0.5 -1.9,-6.2 -1.4,-14.5 -3.7,-14.9 5.4,-17.1 2.8,2.2 1.1,5 -0.8,7.2 v 3.9 h 6.3 l 7.5,-6.6 1.3,-4.7 z"
         inkscape:label="Brcko_distrikt">
        <title
           id="title128">Brcko_distrikt</title>
      </path>
      <path
         name="Bijeljina"
         id="Bijeljina"
         d="m 886.7,270.5 -2.9,-5.9 -5.4,-7.3 -8.2,-5.7 -4.1,-1.2 -6.2,2.3 -7.1,5 -4.1,2.3 -0.3,-17.9 -1.9,-5.7 -9.1,-2 -9.1,2 -3.3,5.7 -4.8,11.3 -7.3,12.8 -5.9,3.1 h -5.1 l -4,-3.6 -13.9,-16.4 -9.9,-9.8 -2.5,-7.2 0.3,-8.2 2.9,-4.1 7.4,-4.7 6.9,-4.6 1.8,-8.2 -0.3,-6.2 4.4,-5.8 3.9,-2.8 12.8,-1.1 5.9,-4.4 3.3,-9.8 3.9,-6.2 5.8,-2.7 3.9,-2.8 -0.2,-6.9 7.7,-0.2 2.8,-0.9 8.2,-2.5 5.2,-0.8 4.2,-1.5 22.9,-16.8 3.2,-0.7 1.6,2.1 1,3.1 1.3,1.7 h 2.5 l 4.5,-2 2.6,-0.5 11.3,2.5 2.4,-0.4 2.1,-1 h 2.3 l 5.1,4.9 2.5,0.9 2.6,-0.3 0.7,-0.4 0.1,-0.3 2.4,2.8 1.5,1.5 1.1,2 0.7,3 0.3,3.7 -0.9,1 -1.4,0.3 -1.1,1.7 -9,43.5 -2.6,6.6 -2.5,3.8 -5.1,4.3 -2.8,2.9 -1.9,3.4 -3.7,10.8 -12,20.5 -1.2,1.2 -2.7,1.6 -1.3,1.7 -0.5,2.4 0.2,5.7 -0.5,2.6 z"
         inkscape:label="Bijeljina">
        <title
           id="title130">kraj_Bijeljina</title>
      </path>
      <path
         name="Vlasenica"
         id="Vlasenica"
         d="m 886.7,270.5 -1.7,2.5 -2,1.7 -9,3 -0.7,5.6 4.1,15.9 -0.5,9.8 -3,5.3 -3.6,4.5 -2.1,7.5 0.4,6.8 2,7.1 5.7,12.3 4.6,5.6 5.1,2.4 11,2.4 5.3,2.7 2.2,0.7 3.7,0.2 8.2,-2 2.9,0.6 4.4,3.6 4.4,6.5 3.2,7.7 0.5,7.2 1.6,4.6 4.8,5 11.2,8.3 2.7,2.8 1.8,1 1.5,-0.4 2.9,-3 h 1.5 l 2.2,2.8 0.6,6.4 1.6,2.2 3.9,3.8 6.1,8.9 8.4,4.9 4.1,5.1 2.4,2 0.9,-1 1.6,-2.2 2.3,-0.8 3.2,2.9 1.9,6.7 -2.2,5.8 -4.3,4.9 -10.5,7.9 -6.1,2.2 -6.3,0.5 -14.5,-1.4 -13.6,0.9 -3.8,1.2 -3.7,0.2 -3.3,-2.1 -6.6,-6.2 -6.5,-4.6 -3.4,-1.3 -3.7,0.3 -5.3,1.7 -2.2,2 -1.4,3.3 v 2.6 l 1.3,4.4 -0.6,2.6 -2.9,2.8 3,1.9 -4.1,11 -12.5,-14.5 -12.5,-13 -31.1,-17.3 -24.9,-15.9 -21.8,-5.7 -22.1,-4.4 3.3,-6.6 3.5,-3.5 0.5,-0.6 5.5,-10.7 1.5,-12.2 -2.6,-11.2 -3.7,-9.8 -4,-9.2 -1.8,-14.8 2.2,-6.1 5.8,-1.1 7.7,-4.6 4.8,-6.6 3.3,-8.7 11.3,-3.1 10.2,-0.5 6.6,-4.1 7.3,-6.2 4.4,-1.8 6.6,-5.6 2.2,-5.1 0.7,-24.7 V 260 l 4.1,-2.3 7.1,-5 6.2,-2.3 4.1,1.2 8.2,5.7 5.4,7.3 z"
         inkscape:label="Vlasenica">
        <title
           id="title146">kraj_Vlasenica</title>
      </path>
      <path
         name="Sarajevo-romanija"
         id="Sarajevo-Romanija"
         d="m 684.9,606.7 1.8,-10.9 1.1,-14.6 2.9,-8.6 h 12.8 l 7.3,5 6.2,6.1 8.5,4 8.6,3.9 -7.7,6.9 -10,1.1 h -11.6 l -10,9.2 z m 143,-52.4 -6.2,-7.6 -12.1,-2 -24.1,-0.5 -11.4,1.5 -5.1,6.6 -2.6,11.7 -4.4,8.6 -4.7,4.5 -9.5,-0.5 -6.2,-1 -0.9,-0.6 -12.7,-9.5 -10.6,-4.6 -8,-4 -11,-0.5 -7,-0.6 -3.3,-6 -6.9,-12.2 -0.7,-8.1 -0.8,-7.1 3.3,-2 10.6,1 7,1.5 7.7,-1 4,-3.6 2.2,-4.5 v -11.2 l -0.7,-10.7 -1.5,-12.7 0.4,-8.6 2.5,-5.1 7.7,-6.1 7.7,-6.6 1.8,-7.4 2.7,-0.1 9.4,-0.4 9.1,-5.6 11.4,-11.7 8.4,-7.7 22.1,4.4 21.8,5.7 24.9,15.9 31.1,17.3 12.5,13 12.5,14.5 -2.2,5.7 2.1,18.7 -1,12.9 5.2,14.4 -5.2,8.6 -11.4,-1.4 -8.3,-5.8 -18.7,-4.3 -17.6,5.8 z"
         inkscape:label="Sarajevo-Romanija">
        <title
           id="title148">kraj_Sarajevo-Romanija</title>
      </path>
      <path
         name="Foča"
         id="Foca"
         d="m 754.9,733.7 -8.1,-5.4 -11.4,-7.1 -20.8,-18.5 -14.5,2.8 -10.3,-7.1 -8.3,4.3 -7.3,-8.6 4.1,-15.7 -2.2,-16.8 h 8.8 l 1.1,-5 -2.6,-11.6 -2.2,-11.6 -1.4,-13.6 1,-9.1 2.1,-2.1 2,-1.9 9.9,2.1 10,-9.2 h 11.6 l 10,-1.1 7.7,-6.9 0.5,0.2 16.5,13.1 11.3,5.6 17.2,2.5 8.1,-2 13.5,-2 10.2,-1.6 8.4,-4 11.4,-5 8.4,-6.6 6.2,-6.6 8.1,-1.5 1.4,-5.1 -2.9,-10.1 -4.4,-5.6 -8.4,-2.5 h -5.9 l -5.8,-6.1 13.3,-9 17.6,-5.8 18.7,4.3 8.3,5.8 11.4,1.4 5.2,-8.6 -5.2,-14.4 1,-12.9 -2.1,-18.7 2.2,-5.7 4.1,-11 8.8,6.8 7.8,10.1 13.7,22.2 26.1,28.4 5.1,11.6 6.2,19.7 0.4,9.4 -6.6,6.4 -1.1,4.2 -0.4,5.1 0.3,4.9 1.2,3.8 1.9,1.7 0.7,1.6 -0.6,1.5 -2,1.3 -9.6,-3.9 -3.1,0.2 -3.2,7.7 -2.2,3 -2,-3.1 -2.2,-5.9 -3.6,-6.8 -4.3,-5.6 -4.3,-2.6 -2.8,0.8 -5.9,4.7 -3,1.8 -3,0.1 -6.5,-1.1 -2.8,0.8 -3.6,5.9 -2.4,7.9 -3,6 h -5.7 l -12.2,-1.9 -6.4,0.7 -6.8,8.2 -5,2 -5.5,0.2 -4.3,-1.6 -3.4,-4.2 -2.7,-5.2 -3.6,-3.6 -5.8,0.6 -3.8,2.8 -6.1,6.8 -4.7,2.4 -2.4,1.8 -1.5,2.9 0.1,2.9 2.5,1.9 3.9,1.1 1.9,1.1 3.4,5.4 -0.2,2.3 -1.1,2.9 v 1.8 l 5.6,-1.5 1.8,1.4 8.9,11.7 7.6,21.2 7.7,14.7 -1.9,1.6 -6.7,0.4 -2.9,1.6 -2,2.6 -1.6,3.1 -2,3 -2.7,2.4 -0.9,-2.1 -5.2,-6.7 -2.3,-4 -0.6,-2.9 0.2,-2.5 -0.2,-2.5 -1.8,-2.5 -6.8,-4.8 -6.2,-1.8 -15.3,1.4 -4.7,2.3 0.9,1.4 1.4,3.2 0.9,1.4 -6.8,2.2 -32.6,24.1 z"
         inkscape:label="Foca">
        <title
           id="title152">kraj_Foca</title>
      </path>
      <path
         name="Trebinje"
         id="Trenbinje"
         d="m 676.1,661.6 2.2,16.8 -4.1,15.7 7.3,8.6 8.3,-4.3 10.3,7.1 14.5,-2.8 20.8,18.5 11.4,7.1 8.1,5.4 6.2,3.1 -11.1,15.5 -4.1,8.9 -2.2,11.3 0.2,9.1 4.5,26.7 -10.4,-1.5 -15.2,0.2 -14.3,3.3 -7.7,7.4 -4.9,13.7 0.1,6.1 2.6,7 6,12.2 1.5,6.7 -1.9,3.4 -3.2,2.5 -2.5,3.9 0.2,6.1 2.4,8.3 3.5,8.4 8.8,14.5 5.2,5.4 4.4,5.7 2.7,9.6 -0.1,10.1 -2.9,7.2 -5.4,5.3 -7.8,4.6 1.8,3.4 0.5,3.2 -0.9,2.1 -2.7,0.3 -2.8,-1.8 -3,-0.3 -2.9,1.3 -2.6,2.4 -4.2,-1.5 -9.2,-1 -3.7,-2.5 -0.2,-0.3 1.2,-16.3 -0.3,-7.6 -7,-2 -7.3,-7.5 -12.4,-11.9 -13.6,-14.5 -1.1,-2.2 -2.2,-4.7 -7.3,-7.2 -5.8,-5.8 -16.1,-14.5 -7.6,-5.3 -0.4,-0.6 -4.5,-8 -4,-13 -2.4,-14.8 -0.2,-0.7 0.4,-16 2.6,-5.5 4.4,-5 2.5,-10 0.8,-13.3 -4.1,-4 -5.2,-2 -1.4,-0.5 -5.8,-0.6 -0.7,-4 0.7,-5.5 4,-6 5.9,-3 4,-5.1 2.9,-4 -0.7,-31.6 -0.7,-22.6 -1.1,-11.6 -6.3,-10.1 1.9,-7.5 17.5,1 h 18.3 l 22.3,-1 z"
         inkscape:label="Trenbinje">
        <title
           id="title154">kraj_Trenbinje</title>
      </path>
      <circle
         id="0"
         cy="442.79999"
         cx="295.79999"
         r="0" />
      <circle
         id="1"
         cy="442.5"
         cx="298.5"
         r="0" />
      <circle
         id="2"
         cy="440.79999"
         cx="293"
         r="0" />
    </g>
    <ellipse
       ry="4.3859849"
       rx="3.9308031"
       style="font-variation-settings:normal;opacity:1;vector-effect:none;fill:#0000ff;fill-opacity:1;fill-rule:evenodd;stroke:#0000ff;stroke-width:0.219718;stroke-linecap:butt;stroke-linejoin:miter;stroke-miterlimit:4;stroke-dasharray:none;stroke-dashoffset:0;stroke-opacity:1;stop-color:#000000;stop-opacity:1"
       id="Sarajevo_mesto"
       cx="138.76637"
       cy="170.79794"
       inkscape:label="Sarajevo">
      <title
         id="title70">Sarajevo</title>
    </ellipse>
    <ellipse
       ry="4.3859849"
       rx="3.9308031"
       style="fill:#0000ff;stroke:#0000ff;stroke-width:0.219718"
       id="Mostar"
       cx="111.13416"
       cy="204.60954"
       inkscape:label="Mostar">
      <title
         id="title68">Mostar</title>
    </ellipse>
    <ellipse
       ry="4.3859849"
       rx="3.9308031"
       style="fill:#0000ff;stroke:#0000ff;stroke-width:0.219718"
       id="Visegrad"
       cx="194.37337"
       cy="181.35802"
       inkscape:label="Višegrad">
      <title
         id="title74">Višegrad</title>
    </ellipse>
    <ellipse
       ry="4.3859849"
       rx="3.9308031"
       style="fill:#0000ff;stroke:#0000ff;stroke-width:0.219718"
       id="Travnik"
       cx="106.10264"
       cy="134.02383"
       inkscape:label="Travnik">
      <title
         id="title78">Travnik</title>
    </ellipse>
    <ellipse
       ry="4.3859849"
       rx="3.9308031"
       style="fill:#0000ff;stroke:#0000ff;stroke-width:0.219718"
       id="Banja_Luka_mesto"
       cx="82.682159"
       cy="100.68464"
       inkscape:label="Banja_Luka_mesto">
      <title
         id="title82">Banja_Luka_mesto</title>
    </ellipse>
    <ellipse
       ry="4.3859849"
       rx="3.9308031"
       style="fill:#0000ff;stroke:#0000ff;stroke-width:0.219718"
       id="Tuzla_mesto"
       cx="159.37479"
       cy="112.87593"
       inkscape:label="Tuzla">
      <title
         id="title86">Tuzla</title>
    </ellipse>
    <ellipse
       ry="4.3859849"
       rx="3.9308031"
       style="fill:#0000ff;stroke:#0000ff;stroke-width:0.219718"
       id="Zenica"
       cx="125.28334"
       cy="139.25134"
       inkscape:label="Zenica">
      <title
         id="title90">Zenica</title>
    </ellipse>
    <ellipse
       ry="4.3859849"
       rx="3.9308031"
       style="fill:#0000ff;stroke:#0000ff;stroke-width:0.219718"
       id="Brcko"
       cx="165.16493"
       cy="90.403839"
       inkscape:label="Brčko">
      <title
         id="title94">Brčko</title>
    </ellipse>
    <path
       sodipodi:type="star"
       style="fill:#000080;fill-rule:evenodd;stroke:#ffffff;stroke-width:0.264583"
       id="kostel"
       sodipodi:sides="3"
       sodipodi:cx="171.65884"
       sodipodi:cy="245.86868"
       sodipodi:r1="8.5091877"
       sodipodi:r2="4.2545938"
       sodipodi:arg1="1.047518"
       sodipodi:arg2="2.0947156"
       inkscape:flatsided="false"
       inkscape:rounded="0"
       inkscape:randomized="0"
       d="m 175.91108,253.23922 -6.38071,-3.68663 -6.38071,-3.68663 6.38307,-3.68255 6.38307,-3.68254 -0.002,7.36918 z"
       inkscape:transform-center-x="0.014924818"
       inkscape:transform-center-y="1.3929223"
       transform="matrix(0.53957116,0.32720773,-0.30724339,0.57463192,122.70485,54.533395)"
       inkscape:label="triangle">
      <title
         id="title102">Hercegovačka Gracanica Monastery</title>
    </path>
    <path
       sodipodi:type="star"
       style="fill:#000080;fill-rule:evenodd;stroke:#ffffff;stroke-width:0.264583"
       id="hora"
       sodipodi:sides="3"
       sodipodi:cx="197.39806"
       sodipodi:cy="196.07513"
       sodipodi:r1="4.0112696"
       sodipodi:r2="2.0056348"
       sodipodi:arg1="1.3086765"
       sodipodi:arg2="2.355874"
       inkscape:flatsided="false"
       inkscape:rounded="0"
       inkscape:randomized="0"
       d="m 198.43749,199.94939 -2.45718,-2.4556 -2.45718,-2.45561 3.35521,-0.90017 3.3552,-0.90018 -0.89802,3.35578 z"
       inkscape:transform-center-x="-0.017450593"
       inkscape:transform-center-y="1.3599462"
       transform="matrix(1.2249133,0.36469668,-0.33763789,1.3230796,-15.664601,-120.26552)"
       inkscape:label="triangle">
      <title
         id="title106">Maglić</title>
    </path>
    <path
       sodipodi:type="star"
       style="fill:#000080;stroke:#ffffff;stroke-width:0.264583"
       id="hrad"
       sodipodi:sides="3"
       sodipodi:cx="140.13467"
       sodipodi:cy="165.45908"
       sodipodi:r1="5.8586307"
       sodipodi:r2="2.9293156"
       sodipodi:arg1="1.5707963"
       sodipodi:arg2="2.6179939"
       inkscape:flatsided="false"
       inkscape:rounded="0"
       inkscape:randomized="0"
       d="m 140.13467,171.31771 -2.53686,-4.39398 -2.53686,-4.39397 5.07372,0 5.07373,0 -2.53686,4.39397 z"
       inkscape:transform-center-x="-3.0281176e-06"
       inkscape:transform-center-y="1.4015454"
       transform="matrix(0.89011431,0,0,0.95690733,-7.9248504,24.323721)"
       inkscape:label="triangle">
      <title
         id="title110">Hrad Ostrozac</title>
    </path>
    <path
       sodipodi:type="star"
       style="fill:#000080;stroke:#ffffff;stroke-width:0.264583"
       id="mlyny"
       sodipodi:sides="3"
       sodipodi:cx="85.793518"
       sodipodi:cy="110.91686"
       sodipodi:r1="10.171898"
       sodipodi:r2="5.0859489"
       sodipodi:arg1="1.6258666"
       sodipodi:arg2="2.6730641"
       inkscape:flatsided="false"
       inkscape:rounded="0"
       inkscape:randomized="0"
       d="m 85.233632,121.07334 -3.977969,-7.8598 -3.977969,-7.85979 8.795767,0.48487 8.795768,0.48488 -4.817799,7.37492 z"
       inkscape:transform-center-x="-0.026334522"
       inkscape:transform-center-y="1.3677303"
       transform="matrix(0.52189794,-0.02841009,0.02358406,0.53939045,26.63269,77.238449)"
       inkscape:label="triangle">
      <title
         id="title118">Plivske mlyny</title>
    </path>
    <path
       sodipodi:type="star"
       style="fill:#000080;stroke:#ffffff;stroke-width:0.264583"
       id="vodopad"
       sodipodi:sides="3"
       sodipodi:cx="96.451958"
       sodipodi:cy="93.477287"
       sodipodi:r1="6.0879855"
       sodipodi:r2="3.0439925"
       sodipodi:arg1="1.5215642"
       sodipodi:arg2="2.5687617"
       inkscape:flatsided="false"
       inkscape:rounded="0"
       inkscape:randomized="0"
       d="m 96.751561,99.557896 -2.857683,-4.430724 -2.857684,-4.430725 5.265962,-0.259464 5.265964,-0.259464 -2.408281,4.690188 z"
       inkscape:transform-center-x="0.045773577"
       inkscape:transform-center-y="1.3341366"
       transform="matrix(0.8591105,0.03255064,-0.02727149,0.89612819,2.0161643,32.428532)"
       inkscape:label="triangle">
      <title
         id="title116">Plivski vodopad</title>
    </path>
  </g>
</svg>
